<svg xmlns="http://www.w3.org/2000/svg" viewBox="0 0 520 330" fill="none">
<g stroke="#75846d" opacity=".18" stroke-width=".65">
<polyline points="287.81,145.50 125.01,239.50"/>
<polyline points="324.19,145.50 486.99,239.50"/>
<polyline points="320.72,164.50 157.91,258.50"/>
<polyline points="291.28,164.50 454.09,258.50"/>
<polyline points="353.63,183.50 190.82,277.50"/>
<polyline points="258.37,183.50 421.18,277.50"/>
<polyline points="386.54,202.50 223.73,296.50"/>
<polyline points="225.46,202.50 388.27,296.50"/>
<polyline points="419.45,221.50 256.64,315.50"/>
<polyline points="192.55,221.50 355.36,315.50"/>
<polyline points="452.35,240.50 289.55,334.50"/>
<polyline points="159.65,240.50 322.45,334.50"/>
<polyline points="485.26,259.50 322.45,353.50"/>
<polyline points="126.74,259.50 289.55,353.50"/>
</g>
<polygon points="306.00,88.00 351.90,114.50 306.00,141.00 260.10,114.50" fill="#fffdf3" fill-opacity=".32" stroke="#5b6b51" stroke-width="1"/>
<polygon points="351.90,237.50 306.00,264.00 306.00,141.00 351.90,114.50" fill="#7f8b71" fill-opacity=".07"/>
<polyline points="306.00,211.00 351.90,237.50" stroke="#5b6b51" stroke-width=".85" opacity=".7"/>
<polyline points="351.90,237.50 306.00,264.00" stroke="#5b6b51" stroke-width=".85" opacity=".7"/>
<polyline points="306.00,264.00 260.10,237.50" stroke="#5b6b51" stroke-width=".85" opacity=".7"/>
<polyline points="260.10,237.50 306.00,211.00" stroke="#5b6b51" stroke-width=".85" opacity=".7"/>
<polyline points="306.00,211.00 306.00,88.00" stroke="#5b6b51" stroke-width=".85" opacity=".7"/>
<polyline points="351.90,237.50 351.90,114.50" stroke="#5b6b51" stroke-width=".85" opacity=".7"/>
<polyline points="306.00,264.00 306.00,141.00" stroke="#5b6b51" stroke-width=".85" opacity=".7"/>
<polyline points="260.10,237.50 260.10,114.50" stroke="#5b6b51" stroke-width=".85" opacity=".7"/>
<polyline points="306.00,88.00 351.90,114.50" stroke="#5b6b51" stroke-width=".85" opacity=".7"/>
<polyline points="351.90,114.50 306.00,141.00" stroke="#5b6b51" stroke-width=".85" opacity=".7"/>
<polyline points="306.00,141.00 260.10,114.50" stroke="#5b6b51" stroke-width=".85" opacity=".7"/>
<polyline points="260.10,114.50 306.00,88.00" stroke="#5b6b51" stroke-width=".85" opacity=".7"/>
<polyline points="306.00,195.62 351.90,222.12 306.00,248.62" stroke="#6d7b60" stroke-width=".55" opacity=".45"/>
<polyline points="306.00,180.25 351.90,206.75 306.00,233.25" stroke="#6d7b60" stroke-width=".55" opacity=".45"/>
<polyline points="306.00,164.88 351.90,191.38 306.00,217.88" stroke="#6d7b60" stroke-width=".55" opacity=".45"/>
<polyline points="306.00,149.50 351.90,176.00 306.00,202.50" stroke="#6d7b60" stroke-width=".55" opacity=".45"/>
<polyline points="306.00,134.12 351.90,160.62 306.00,187.12" stroke="#6d7b60" stroke-width=".55" opacity=".45"/>
<polyline points="306.00,118.75 351.90,145.25 306.00,171.75" stroke="#6d7b60" stroke-width=".55" opacity=".45"/>
<polyline points="306.00,103.38 351.90,129.88 306.00,156.38" stroke="#6d7b60" stroke-width=".55" opacity=".45"/>
<polyline points="313.65,215.42 313.65,92.42" stroke="#6d7b60" stroke-width=".55" opacity=".45"/>
<polyline points="344.25,241.92 344.25,118.92" stroke="#6d7b60" stroke-width=".55" opacity=".45"/>
<polyline points="321.30,219.83 321.30,96.83" stroke="#6d7b60" stroke-width=".55" opacity=".45"/>
<polyline points="336.60,246.33 336.60,123.33" stroke="#6d7b60" stroke-width=".55" opacity=".45"/>
<polyline points="328.95,224.25 328.95,101.25" stroke="#6d7b60" stroke-width=".55" opacity=".45"/>
<polyline points="328.95,250.75 328.95,127.75" stroke="#6d7b60" stroke-width=".55" opacity=".45"/>
<polyline points="336.60,228.67 336.60,105.67" stroke="#6d7b60" stroke-width=".55" opacity=".45"/>
<polyline points="321.30,255.17 321.30,132.17" stroke="#6d7b60" stroke-width=".55" opacity=".45"/>
<polyline points="344.25,233.08 344.25,110.08" stroke="#6d7b60" stroke-width=".55" opacity=".45"/>
<polyline points="313.65,259.58 313.65,136.58" stroke="#6d7b60" stroke-width=".55" opacity=".45"/>
<polygon points="352.76,153.00 398.66,179.50 352.76,206.00 306.87,179.50" fill="#fffdf3" fill-opacity=".32" stroke="#5b6b51" stroke-width="1"/>
<polygon points="398.66,264.50 352.76,291.00 352.76,206.00 398.66,179.50" fill="#7f8b71" fill-opacity=".07"/>
<polyline points="352.76,238.00 398.66,264.50" stroke="#5b6b51" stroke-width=".85" opacity=".7"/>
<polyline points="398.66,264.50 352.76,291.00" stroke="#5b6b51" stroke-width=".85" opacity=".7"/>
<polyline points="352.76,291.00 306.87,264.50" stroke="#5b6b51" stroke-width=".85" opacity=".7"/>
<polyline points="306.87,264.50 352.76,238.00" stroke="#5b6b51" stroke-width=".85" opacity=".7"/>
<polyline points="352.76,238.00 352.76,153.00" stroke="#5b6b51" stroke-width=".85" opacity=".7"/>
<polyline points="398.66,264.50 398.66,179.50" stroke="#5b6b51" stroke-width=".85" opacity=".7"/>
<polyline points="352.76,291.00 352.76,206.00" stroke="#5b6b51" stroke-width=".85" opacity=".7"/>
<polyline points="306.87,264.50 306.87,179.50" stroke="#5b6b51" stroke-width=".85" opacity=".7"/>
<polyline points="352.76,153.00 398.66,179.50" stroke="#5b6b51" stroke-width=".85" opacity=".7"/>
<polyline points="398.66,179.50 352.76,206.00" stroke="#5b6b51" stroke-width=".85" opacity=".7"/>
<polyline points="352.76,206.00 306.87,179.50" stroke="#5b6b51" stroke-width=".85" opacity=".7"/>
<polyline points="306.87,179.50 352.76,153.00" stroke="#5b6b51" stroke-width=".85" opacity=".7"/>
<polyline points="352.76,227.38 398.66,253.88 352.76,280.38" stroke="#6d7b60" stroke-width=".55" opacity=".45"/>
<polyline points="352.76,216.75 398.66,243.25 352.76,269.75" stroke="#6d7b60" stroke-width=".55" opacity=".45"/>
<polyline points="352.76,206.12 398.66,232.62 352.76,259.12" stroke="#6d7b60" stroke-width=".55" opacity=".45"/>
<polyline points="352.76,195.50 398.66,222.00 352.76,248.50" stroke="#6d7b60" stroke-width=".55" opacity=".45"/>
<polyline points="352.76,184.88 398.66,211.38 352.76,237.88" stroke="#6d7b60" stroke-width=".55" opacity=".45"/>
<polyline points="352.76,174.25 398.66,200.75 352.76,227.25" stroke="#6d7b60" stroke-width=".55" opacity=".45"/>
<polyline points="352.76,163.62 398.66,190.12 352.76,216.62" stroke="#6d7b60" stroke-width=".55" opacity=".45"/>
<polyline points="360.41,242.42 360.41,157.42" stroke="#6d7b60" stroke-width=".55" opacity=".45"/>
<polyline points="391.01,268.92 391.01,183.92" stroke="#6d7b60" stroke-width=".55" opacity=".45"/>
<polyline points="368.06,246.83 368.06,161.83" stroke="#6d7b60" stroke-width=".55" opacity=".45"/>
<polyline points="383.36,273.33 383.36,188.33" stroke="#6d7b60" stroke-width=".55" opacity=".45"/>
<polyline points="375.71,251.25 375.71,166.25" stroke="#6d7b60" stroke-width=".55" opacity=".45"/>
<polyline points="375.71,277.75 375.71,192.75" stroke="#6d7b60" stroke-width=".55" opacity=".45"/>
<polyline points="383.36,255.67 383.36,170.67" stroke="#6d7b60" stroke-width=".55" opacity=".45"/>
<polyline points="368.06,282.17 368.06,197.17" stroke="#6d7b60" stroke-width=".55" opacity=".45"/>
<polyline points="391.01,260.08 391.01,175.08" stroke="#6d7b60" stroke-width=".55" opacity=".45"/>
<polyline points="360.41,286.58 360.41,201.58" stroke="#6d7b60" stroke-width=".55" opacity=".45"/>
<polygon points="259.24,180.00 305.13,206.50 259.24,233.00 213.34,206.50" fill="#fffdf3" fill-opacity=".32" stroke="#5b6b51" stroke-width="1"/>
<polygon points="305.13,264.50 259.24,291.00 259.24,233.00 305.13,206.50" fill="#7f8b71" fill-opacity=".07"/>
<polyline points="259.24,238.00 305.13,264.50" stroke="#5b6b51" stroke-width=".85" opacity=".7"/>
<polyline points="305.13,264.50 259.24,291.00" stroke="#5b6b51" stroke-width=".85" opacity=".7"/>
<polyline points="259.24,291.00 213.34,264.50" stroke="#5b6b51" stroke-width=".85" opacity=".7"/>
<polyline points="213.34,264.50 259.24,238.00" stroke="#5b6b51" stroke-width=".85" opacity=".7"/>
<polyline points="259.24,238.00 259.24,180.00" stroke="#5b6b51" stroke-width=".85" opacity=".7"/>
<polyline points="305.13,264.50 305.13,206.50" stroke="#5b6b51" stroke-width=".85" opacity=".7"/>
<polyline points="259.24,291.00 259.24,233.00" stroke="#5b6b51" stroke-width=".85" opacity=".7"/>
<polyline points="213.34,264.50 213.34,206.50" stroke="#5b6b51" stroke-width=".85" opacity=".7"/>
<polyline points="259.24,180.00 305.13,206.50" stroke="#5b6b51" stroke-width=".85" opacity=".7"/>
<polyline points="305.13,206.50 259.24,233.00" stroke="#5b6b51" stroke-width=".85" opacity=".7"/>
<polyline points="259.24,233.00 213.34,206.50" stroke="#5b6b51" stroke-width=".85" opacity=".7"/>
<polyline points="213.34,206.50 259.24,180.00" stroke="#5b6b51" stroke-width=".85" opacity=".7"/>
<polyline points="259.24,230.75 305.13,257.25 259.24,283.75" stroke="#6d7b60" stroke-width=".55" opacity=".45"/>
<polyline points="259.24,223.50 305.13,250.00 259.24,276.50" stroke="#6d7b60" stroke-width=".55" opacity=".45"/>
<polyline points="259.24,216.25 305.13,242.75 259.24,269.25" stroke="#6d7b60" stroke-width=".55" opacity=".45"/>
<polyline points="259.24,209.00 305.13,235.50 259.24,262.00" stroke="#6d7b60" stroke-width=".55" opacity=".45"/>
<polyline points="259.24,201.75 305.13,228.25 259.24,254.75" stroke="#6d7b60" stroke-width=".55" opacity=".45"/>
<polyline points="259.24,194.50 305.13,221.00 259.24,247.50" stroke="#6d7b60" stroke-width=".55" opacity=".45"/>
<polyline points="259.24,187.25 305.13,213.75 259.24,240.25" stroke="#6d7b60" stroke-width=".55" opacity=".45"/>
<polyline points="266.89,242.42 266.89,184.42" stroke="#6d7b60" stroke-width=".55" opacity=".45"/>
<polyline points="297.48,268.92 297.48,210.92" stroke="#6d7b60" stroke-width=".55" opacity=".45"/>
<polyline points="274.54,246.83 274.54,188.83" stroke="#6d7b60" stroke-width=".55" opacity=".45"/>
<polyline points="289.83,273.33 289.83,215.33" stroke="#6d7b60" stroke-width=".55" opacity=".45"/>
<polyline points="282.19,251.25 282.19,193.25" stroke="#6d7b60" stroke-width=".55" opacity=".45"/>
<polyline points="282.19,277.75 282.19,219.75" stroke="#6d7b60" stroke-width=".55" opacity=".45"/>
<polyline points="289.83,255.67 289.83,197.67" stroke="#6d7b60" stroke-width=".55" opacity=".45"/>
<polyline points="274.54,282.17 274.54,224.17" stroke="#6d7b60" stroke-width=".55" opacity=".45"/>
<polyline points="297.48,260.08 297.48,202.08" stroke="#6d7b60" stroke-width=".55" opacity=".45"/>
<polyline points="266.89,286.58 266.89,228.58" stroke="#6d7b60" stroke-width=".55" opacity=".45"/>
<path d="M211 214v-121M205 214h12M205 93h12" stroke="#9a7050" stroke-width=".9"/><path d="m199 235 83 48m-86-43 6-10m77 58 6-10" stroke="#9a7050" stroke-width=".8"/>
</svg>